<?xml version="1.0" encoding="utf-8"?>
<!-- Generator: Adobe Illustrator 19.0.0, SVG Export Plug-In . SVG Version: 6.00 Build 0)  -->
<svg version="1.1" id="Layer_1" xmlns="http://www.w3.org/2000/svg" xmlns:xlink="http://www.w3.org/1999/xlink" x="0px" y="0px"
	 viewBox="0 0 500 500" style="enable-background:new 0 0 500 500;" xml:space="preserve">
<style type="text/css">
	.st0{fill:#ED1C24;}
	.st1{fill:#FFF200;}
</style>
<g id="XMLID_1_">
	<polygon id="XMLID_3_" class="st0" points="432.5,179 365.8,109.3 137.5,109 67.5,179 243.5,391 	"/>
	<path id="XMLID_9_" class="st1" d="M98.1,180.3l46.6-48.2l29.3,0.4c-45.2,21.9-56.2,51.5-48.7,78.6L98.1,180.3z M201.2,304.3
		c36.2,9.9,58.5,11.6,90.7,1.7l-46.4,48.6L201.2,304.3z M139.8,234.7l37.8,42.4c5.7-22.2,65.4-8.6,70.7,9.6
		c25,8.2,67.7-5.8,68.3-18.8C316.4,236.4,171.1,262.5,139.8,234.7z M363,139.9l-1,44.9h-58.9c0.8-29.7-21.8-44.3-65.2-43.1
		c-30.6,0.6-60,12.5-60.4,32.3c0,46.8,164.6-3.8,177.8,61.5l47.7-55.2L363,139.9L363,139.9z M293,132.6l31.2,0l-6.8,23.2
		C311.6,141.9,301.9,136.7,293,132.6z"/>
</g>
</svg>
